# xmcd
#
# Track frame offsets: 
#        150
#        13591
#        26408
#        36261
#        53730
#        66940
#        77892
#        92062
#        104211
#        119526
#        131212
#        143671
#        157882
#        169129
#        182453
#        199551
#        214242
#        230680
#        248532
#        265979
#        282055
#
# Disc length: 3945 seconds
#
# Revision: 0
# Processed by: cddbd v1.5.2PL0 Copyright (c) Steve Scherf et al.
# Submitted via: ExactAudioCopyFreeDBPlugin 1.0
#
DISCID=2a0f6715
DTITLE=Various Artist - Best of Country Collection Vol 2
DYEAR=1900
DGENRE=Country
TTITLE0=Take me home, Country Road (John Denver)
TTITLE1=San Francisco (Scott McKenzie)
TTITLE2=Honky Tonk Man (Johnny Horton)
TTITLE3=Vincent (Don McLean)
TTITLE4=Indian Outlaw (Tim McGraw)
TTITLE5=Send me the pillow that you dream on (Johnny Tillotson)
TTITLE6=The mansion you stole (Johnny Horton)
TTITLE7=Tom Dooley (The Kingston Trio)
TTITLE8=Achy Breaky Heart (Billy Ray Cyrus)
TTITLE9=Kaw Liga (Hank Williams)
TTITLE10=Sealed with a Kiss (Bobby Vinton)
TTITLE11=It never rains in Southern California (Albert Hammond)
TTITLE12=Song Sung Blue (Neil Diamond)
TTITLE13=Carry On Till Tomorrow (Badfinger)
TTITLE14=Stoney (Lobo)
TTITLE15=Paloma Blanca (George Baker)
TTITLE16=Love Me Tender (Elvis Presley)
TTITLE17=Any Man of Mine (Shania Twain)
TTITLE18=Evergreen Tree (Cliff Richard)
TTITLE19=Old Pop and an Oak (Red Nex)
TTITLE20=dontknow Track21
EXTD=
EXTT0=
EXTT1=
EXTT2=
EXTT3=
EXTT4=
EXTT5=
EXTT6=
EXTT7=
EXTT8=
EXTT9=
EXTT10=
EXTT11=
EXTT12=
EXTT13=
EXTT14=
EXTT15=
EXTT16=
EXTT17=
EXTT18=
EXTT19=
EXTT20=
PLAYORDER=
